<?xml version="1.0" encoding="iso-8859-1"?>
<!-- Generator: Adobe Illustrator 19.0.0, SVG Export Plug-In . SVG Version: 6.00 Build 0)  -->
<svg xmlns="http://www.w3.org/2000/svg" xmlns:xlink="http://www.w3.org/1999/xlink" version="1.1" id="Capa_1" x="0px" y="0px" viewBox="0 0 512.003 512.003" style="enable-background:new 0 0 512.003 512.003;" xml:space="preserve" width="512px" height="512px">
<g>
	<g>
		<path d="M471.636,40.985c-23.233-23.233-54.064-36.829-89.16-39.318c-31.551-2.237-64.326,4.6-95.245,19.812    c-3.885,1.911-5.366,6.7-3.314,10.512l0.02,0.036c1.952,3.627,6.428,5.112,10.124,3.294c28.462-14,58.505-20.3,87.325-18.257    c31.334,2.223,58.769,14.269,79.337,34.836c54.773,54.773,44.436,154.233-23.046,221.714    c-67.479,67.48-166.941,77.817-221.713,23.046c-26.326-26.325-38.555-63.73-34.434-105.323    c4.177-42.168,24.589-83.502,57.478-116.39c8.891-8.891,18.5-16.949,28.639-24.023c3.399-2.371,4.268-7.035,2.021-10.518    c-2.346-3.636-7.251-4.652-10.802-2.176c-10.901,7.601-21.227,16.256-30.774,25.803c-35.404,35.404-57.396,80.075-61.925,125.783    c-4.302,43.431,7.593,82.934,33.582,112.142l-77.123,77.123c-3.427-3.328-7.926-5.167-12.713-5.167    c-4.878,0-9.466,1.9-12.916,5.35l-58.324,58.324c-3.014,3.014-3.014,7.901,0,10.915c3.014,3.014,7.901,3.014,10.914,0    l58.324-58.324c0.72-0.721,1.563-0.829,2-0.829c0.437,0,1.28,0.108,2.001,0.829l10.53,10.53c1.103,1.104,1.104,2.899,0,4.003    l-91.026,91.026c-0.72,0.721-1.563,0.829-2,0.829s-1.28-0.108-2.001-0.829l-10.53-10.53c-1.105-1.105-1.105-2.898,0-4.004    l8.754-8.753c3.014-3.014,3.014-7.901,0-10.915c-3.014-3.014-7.9-3.014-10.915,0l-8.755,8.754    C-1.152,477.413-1.152,489,5.97,496.122l10.236,10.237c3.237,3.237,7.509,5.336,12.08,5.61c5.297,0.317,10.331-1.6,14.047-5.316    l91.026-91.026c7.056-7.057,7.109-18.493,0.181-25.631l77.128-77.128c25.295,22.506,58.306,34.449,94.907,34.449    c5.663,0,11.412-0.286,17.23-0.862c45.709-4.528,90.379-26.52,125.784-61.925c35.403-35.404,57.395-80.075,61.924-125.783    C515.099,112.462,501.292,70.641,471.636,40.985z" fill="#FFFFFF"/>
	</g>
</g>
<g>
	<g>
		<path d="M445.149,67.471c-21.573-21.573-52.685-31.548-87.58-28.091c-37.114,3.677-73.69,21.837-102.989,51.136    c-29.298,29.298-47.458,65.873-51.136,102.988c-3.459,34.906,6.518,66.009,28.09,87.581    c18.772,18.771,44.758,28.762,74.188,28.762c4.392,0,8.861-0.222,13.393-0.672c37.113-3.677,73.689-21.837,102.988-51.136    c29.299-29.299,47.459-65.874,51.136-102.988C476.696,120.147,466.72,89.044,445.149,67.471z M439.413,84.121    c6.949,8.502,12.072,18.455,15.245,29.48l-22.362-22.362L439.413,84.121z M266.216,174.279l30.606-30.606l30.605,30.606    l-30.606,30.606L266.216,174.279z M285.906,215.8l-30.608,30.608l-30.606-30.606l30.608-30.608L285.906,215.8z M307.737,132.757    l30.6-30.6l30.606,30.605l-30.6,30.6L307.737,132.757z M338.341,185.194l30.603,30.603l-30.606,30.606L307.735,215.8    L338.341,185.194z M349.258,174.277l30.6-30.6l30.603,30.602l-30.6,30.6L349.258,174.277z M390.772,132.763l30.608-30.608    l30.602,30.602l-30.608,30.609L390.772,132.763z M428.493,73.213l-7.112,7.113l-22.338-22.338    C410.055,61.161,420,66.271,428.493,73.213z M379.86,60.634l30.605,30.605l-30.609,30.608l-30.604-30.605L379.86,60.634z     M359.09,54.741c1.759-0.174,3.502-0.302,5.235-0.4l-25.988,25.987l-16.453-16.453C334.026,59.084,346.535,55.985,359.09,54.741z     M306.919,70.738l20.505,20.505l-30.601,30.599l-25.75-25.75C282.18,85.894,294.259,77.375,306.919,70.738z M260.157,107.009    l25.75,25.75l-30.606,30.606l-20.503-20.503C241.435,130.199,249.956,118.117,260.157,107.009z M218.804,195.028    c1.244-12.554,4.341-25.06,9.131-37.2l16.451,16.451L218.4,200.265C218.497,198.531,218.629,196.787,218.804,195.028z     M237.268,264.437c-6.947-8.5-12.069-18.449-15.243-29.471l22.357,22.356L237.268,264.437z M248.184,275.35l7.115-7.114    l22.354,22.354C266.632,287.419,256.683,282.296,248.184,275.35z M296.815,287.924l-30.603-30.603l30.608-30.608l30.603,30.603    L296.815,287.924z M317.593,293.816c-1.761,0.175-3.508,0.307-5.244,0.403l25.989-25.989l16.454,16.454    C342.651,289.475,330.146,292.572,317.593,293.816z M369.758,277.822l-20.506-20.506l30.606-30.606l25.753,25.753    C394.503,262.663,382.42,271.184,369.758,277.822z M416.528,241.545l-25.753-25.752l30.6-30.6l20.507,20.507    C435.246,218.36,426.726,230.439,416.528,241.545z M457.879,153.53c-1.244,12.555-4.342,25.063-9.135,37.204l-16.455-16.455    l25.993-25.993C458.184,150.022,458.053,151.769,457.879,153.53z" fill="#FFFFFF"/>
	</g>
</g>
<g>
	<g>
		<path d="M148.883,34.406h-17.474L32.333,0.418c-2.357-0.809-4.962-0.429-6.989,1.02c-2.029,1.449-3.233,3.788-3.233,6.281v136.354    c0.001,2.491,1.205,4.83,3.233,6.279c1.325,0.947,2.897,1.437,4.485,1.437c0.841,0,1.688-0.138,2.504-0.418l99.076-33.989h17.474    c22.876,0,41.487-18.611,41.487-41.488C190.369,53.017,171.759,34.406,148.883,34.406z M37.547,18.524l84.857,29.112v20.54H37.547    V18.524z M122.405,104.153l-84.858,29.112V83.612h84.858V104.153z M148.884,101.947h-11.044V49.842h11.043    c14.366,0,26.052,11.688,26.052,26.052C174.935,90.259,163.249,101.947,148.884,101.947z" fill="#FFFFFF"/>
	</g>
</g>
<g>
</g>
<g>
</g>
<g>
</g>
<g>
</g>
<g>
</g>
<g>
</g>
<g>
</g>
<g>
</g>
<g>
</g>
<g>
</g>
<g>
</g>
<g>
</g>
<g>
</g>
<g>
</g>
<g>
</g>
</svg>
