<?xml version="1.0" encoding="iso-8859-1"?>
<!-- Generator: Adobe Illustrator 19.0.0, SVG Export Plug-In . SVG Version: 6.00 Build 0)  -->
<svg xmlns="http://www.w3.org/2000/svg" xmlns:xlink="http://www.w3.org/1999/xlink" version="1.1" id="Layer_1" x="0px" y="0px" viewBox="0 0 511.998 511.998" style="enable-background:new 0 0 511.998 511.998;" xml:space="preserve" width="512px" height="512px">
<g>
	<g>
		<path d="M493.997,223.954c-4.709-1.714-9.917,0.713-11.632,5.421c-10.307,28.306-27.447,54.959-49.566,77.079    c-27.517,27.517-61.061,46.76-97.006,55.651c-34.897,8.629-69.542,6.98-100.192-4.776c-23.603-9.042-50.585-3.153-68.739,15.002    l-18.644,18.644l-27.177-27.178l18.643-18.643c18.166-18.165,24.053-45.148,15.002-68.74    C138.009,232.9,141.765,182.142,164.8,135.73c5.909,3.503,12.327,6.112,19.029,7.721c-3.068,6.413-5.731,12.972-7.951,19.61    c-7.143,21.302-9.834,43.737-7.785,64.881c2.981,30.792,15.55,58.12,36.35,79.055c0.093,0.102,0.189,0.202,0.287,0.3    c20.966,20.967,48.403,33.63,79.341,36.623c4.613,0.448,9.286,0.67,13.994,0.67c16.894,0,34.245-2.86,50.89-8.442    c25.773-8.648,49.925-23.754,69.842-43.684c19.934-19.934,35.039-44.088,43.684-69.856c7.147-21.313,9.834-43.751,7.773-64.881    c-2.996-30.941-15.659-58.377-36.625-79.343s-48.403-33.63-79.336-36.623c-21.134-2.066-43.574,0.624-64.892,7.772    c-8.072,2.71-15.982,6.055-23.647,9.967c-0.474-1.783-1.004-3.558-1.626-5.316c-6.09-17.214-18.519-31.024-34.997-38.89    c-16.477-7.864-35.032-8.843-52.246-2.751c-5.349,1.892-10.436,4.434-15.121,7.552c-4.172,2.777-5.302,8.411-2.525,12.581    c2.777,4.17,8.41,5.302,12.581,2.525c3.438-2.289,7.179-4.157,11.116-5.55c12.644-4.474,26.272-3.755,38.375,2.022    c12.103,5.777,21.232,15.922,25.706,28.565c1.518,4.291,2.424,8.698,2.751,13.118c-19.091,4.317-32.243-0.028-47.235-4.987    c-14.1-4.663-29.755-9.83-50.688-6.62c1.152-3.605,2.71-7.108,4.686-10.435c2.559-4.308,1.141-9.876-3.167-12.435    c-4.31-2.559-9.876-1.14-12.435,3.167c-10.401,17.51-12.475,38.556-5.686,57.739c3.334,9.424,8.543,17.654,15.049,24.438    c-26.842,51.865-31.476,109.321-12.556,158.687c6.488,16.913,2.214,36.306-10.89,49.41l-73.65,73.65    c-3.544,3.544-3.544,9.289,0,12.832c1.771,1.771,4.094,2.658,6.416,2.658s4.645-0.886,6.416-2.658l18.281-18.281l27.178,27.177    l-62.395,62.395l-27.172-27.178L41.837,443c3.544-3.544,3.544-9.289,0-12.832c-3.544-3.544-9.289-3.544-12.832,0l-26.332,26.33    c-3.544,3.544-3.544,9.289,0,12.832l40.01,40.01c1.701,1.702,4.009,2.658,6.416,2.658c2.406,0,4.715-0.956,6.416-2.658    l124.179-124.179c13.097-13.097,32.493-17.37,49.412-10.889c34.129,13.089,72.527,14.973,111.045,5.448    c39.153-9.684,75.628-30.581,105.481-60.435c23.98-23.979,42.578-52.924,53.786-83.701    C501.133,230.876,498.706,225.668,493.997,223.954z M186.648,230.388l24.717-24.719l30.839,30.84    c1.771,1.772,4.094,2.658,6.416,2.658s4.645-0.886,6.416-2.658c3.544-3.544,3.544-9.289,0-12.832l-30.839-30.84l41.076-41.076    l41.072,41.076l-94.92,94.92C197.984,271.807,189.507,252.203,186.648,230.388z M185.847,205.524    c0.465-7.372,1.528-14.806,3.187-22.185l9.5,9.5L185.847,205.524z M319.179,180.005l-41.072-41.075l41.072-41.072l41.073,41.073    L319.179,180.005z M373.084,151.763l41.073,41.075l-41.075,41.075l-41.072-41.076L373.084,151.763z M281.628,325.368    c-21.821-2.858-41.425-11.338-57.372-24.775l94.923-94.923l41.072,41.076l-41.073,41.073l-32.679-32.679    c-3.544-3.544-9.289-3.544-12.832,0c-3.544,3.544-3.544,9.289,0,12.832l32.679,32.679L281.628,325.368z M306.488,326.171    l12.689-12.689l9.507,9.507C321.306,324.646,313.867,325.709,306.488,326.171z M348.422,317.063l-16.413-16.413l41.072-41.072    l26.291,26.294C384.237,299.466,366.846,310.114,348.422,317.063z M412.204,273.037l-26.29-26.291l41.076-41.076l16.407,16.407    C436.448,240.496,425.801,257.89,412.204,273.037z M449.325,202.34l-9.503-9.502l12.689-12.689    C452.047,187.522,450.984,194.959,449.325,202.34z M451.703,155.292l-24.714,24.714l-41.073-41.074l41.02-41.02    C440.373,113.86,448.846,133.467,451.703,155.292z M356.724,60.313c21.823,2.855,41.431,11.329,57.381,24.767l-41.021,41.02    L332.01,85.027L356.724,60.313z M331.869,59.502l-12.691,12.691l-9.505-9.505C317.055,61.028,324.493,59.966,331.869,59.502z     M261.379,106.429c4.186-8.771,6.4-18.131,6.657-27.563c7.063-3.993,14.396-7.421,21.901-10.25l16.409,16.409l-41.071,41.071    l-9.722-9.722C257.743,113.253,259.703,109.939,261.379,106.429z M252.442,138.929l-41.077,41.077l-16.409-16.409    c2.346-6.237,5.122-12.378,8.302-18.352c6.411-0.331,12.88-1.57,19.233-3.818c7.663-2.711,14.648-6.687,20.738-11.71    L252.442,138.929z M149.611,80.611c19.089-4.316,32.239,0.03,47.229,4.988c11.06,3.657,23.073,7.631,37.824,7.631    c4.066,0,8.342-0.305,12.861-0.998c-0.694,2.163-1.528,4.295-2.524,6.38c-5.776,12.103-15.92,21.233-28.563,25.707    c-12.645,4.474-26.272,3.755-38.375-2.022c-12.103-5.777-21.233-15.922-25.707-28.565    C150.839,89.447,149.934,85.036,149.611,80.611z M124.325,414.865l-27.177-27.177l11.06-11.062l27.177,27.178L124.325,414.865z" fill="#FFFFFF"/>
	</g>
</g>
<g>
	<g>
		<path d="M506.588,121.587c-7.197-28.415-21.675-54.106-41.866-74.296C440.18,22.747,408.284,7.042,372.487,1.876    c-34.59-4.991-71.147,0.022-105.715,14.498c-4.623,1.936-6.801,7.253-4.865,11.875c1.936,4.623,7.254,6.799,11.875,4.865    c31.538-13.209,64.773-17.799,96.112-13.276c31.891,4.602,60.243,18.534,81.997,40.286c18.134,18.136,30.619,40.313,37.105,65.92    c6.232,24.605,6.452,51.687,0.635,78.32c-1.07,4.896,2.033,9.732,6.929,10.802c0.653,0.143,1.304,0.211,1.945,0.211    c4.173,0,7.929-2.896,8.856-7.139C513.776,178.868,513.509,148.904,506.588,121.587z" fill="#FFFFFF"/>
	</g>
</g>
<g>
</g>
<g>
</g>
<g>
</g>
<g>
</g>
<g>
</g>
<g>
</g>
<g>
</g>
<g>
</g>
<g>
</g>
<g>
</g>
<g>
</g>
<g>
</g>
<g>
</g>
<g>
</g>
<g>
</g>
</svg>
