<?xml version="1.0" encoding="iso-8859-1"?>
<!-- Generator: Adobe Illustrator 18.0.0, SVG Export Plug-In . SVG Version: 6.00 Build 0)  -->
<!DOCTYPE svg PUBLIC "-//W3C//DTD SVG 1.1//EN" "http://www.w3.org/Graphics/SVG/1.1/DTD/svg11.dtd">
<svg xmlns="http://www.w3.org/2000/svg" xmlns:xlink="http://www.w3.org/1999/xlink" version="1.1" id="Capa_1" x="0px" y="0px" viewBox="0 0 468.887 468.887" style="enable-background:new 0 0 468.887 468.887;" xml:space="preserve" width="512px" height="512px">
<path d="M433.3,454.614c-3.59-2.099-7.882-4.303-12.423-6.634c-8.122-4.17-21.715-11.15-22.531-14.415  c-2.196-8.788,5.287-30.654,9.308-42.401c1.101-3.216,2.051-5.994,2.655-8.009c10.482-34.941,5.564-50.964,1.699-57.405  c-8.514-14.191-51.624-10.202-66.568-8.353c8.684-32.879,5.268-54.66,4.187-59.929c1.432-2.786,4.471-10.246,1.887-19.535  c-3.019-10.848-12.497-20.281-28.176-28.046c-0.194-0.096-1.632-0.718-2.005-0.892c-5.768-2.68-7.823-7.323-8.542-10.63  c5.212,1.183,13.526,2.016,17.142-3.407c2.369-3.554,2.78-12.962,2.85-15.761c0.209-8.413-0.746-17.338-2.69-25.132  c-3.766-15.098-11.108-25.96-21.235-31.414c-2.695-1.449-5.438-2.528-8.156-3.229c-0.876-4.416-2.099-8.768-3.709-13.025  c-5.876-15.539-14.478-37.616-22.364-55.316l0.112-0.382c4.445-15.064,8.645-29.292-1.061-46.327  c-1.334-2.342-3.641-3.902-6.328-4.281c-2.722-0.384-5.401,0.493-7.359,2.403c-12.732,12.412-17.832,32.458-12.4,48.749l6,18  c0.021,0.066,0.047,0.133,0.073,0.198c0.163,0.393,11.173,27.404,15.589,60.311c-3.803,4.043-6.882,8.856-8.556,13.448  c-0.037,0.082-0.202,0.577-0.257,0.742c-2.181-1.208-5.206-2.607-8.487-3.29c-1.047-0.218-2.114-0.328-3.174-0.328  c-5.503,0-10.52,2.877-13.421,7.698c-12.12,20.143,17.046,59.447,18.293,61.11c0.58,0.773,1.478,1.2,2.401,1.2h0.043  c1.275,0,2.455-0.798,2.826-2.018c0.178-0.587,0.193-1.156,0.07-1.675c-0.417-3.596-3.939-34.321-3.939-46.307  c0-5.813,2.182-7.981,4.537-8.634c1.055,9.196,7.492,21.923,9.584,25.865c-2.334,7.123-11.876,40.852,6.5,68.002  c0.551,2.03,1.199,4.224,1.882,6.536c4.404,14.906,10.438,35.321,3.089,54.099c-4.189,10.708-11.035,17.309-16.532,21.865  c-1.672,1.388-3.316,2.664-4.905,3.897c-5.186,4.024-9.664,7.5-11.554,12.217c-3.035,7.588-3.384,14.607-3.321,18.115  c-7.96,3.171-37.092,15.07-55.473,26.448c-11.005,6.81-22.431,4.906-33.194,2.371c-1.354-0.318-2.698-0.648-4.029-0.975  c-7.588-1.863-14.753-3.625-21.549-2.824c-13.472,1.585-45.852,11.126-59.147,15.155c-3.165,0.959-6.525,0.405-9.219-1.522  c-3.034-2.17-6.919-2.854-10.396-1.83c-7.392,2.178-12.983,8.496-14.245,16.093l-5.188,31.12c-0.256,1.538-0.293,3.113-0.005,4.645  c0.148,0.785,0.384,1.635,0.757,2.474c1.941,4.365,6.736,11.043,18.361,11.042c1.182,0,2.438-0.069,3.765-0.217  c7.431-0.826,11.697-3.088,13.04-6.917c1.751-4.991-1.482-9.222-3.249-10.186c-2.889-1.576-6.631-2.711-6.631-2.711l16.611-11.455  c4.368-3.012,9.69-4.545,14.99-4.304l102.775,4.588c0.056,0.003,0.113,0.004,0.169,0.003c0.843-0.01,20.945-0.326,46.538-7.573  c23.203-6.571,55.221-20.323,77.386-48.585c10.44,3.127,33.143-4.695,55.73-13.107c1.206-0.449,2.396-0.892,3.522-1.308  c-3.827,8.734-5.953,21.922-6.335,39.382c-0.337,15.369,0.838,29.22,1.092,31.989l-4.203,18.216c-0.409,1.773-0.4,3.642,0.188,5.364  c1.222,3.577,4.345,5.987,7.996,6.371l54.416,4.803c0.289,0.031,0.575,0.045,0.858,0.045c3.352,0,6.215-2.097,7.228-5.41  C437.924,460.082,436.364,456.406,433.3,454.614z M249.05,160.33c0,8.135,1.504,24.031,2.674,35.163  c-8.249-13.54-17.63-33.737-11.227-44.379c1.806-3.001,4.901-4.792,8.28-4.792c0.649,0,1.307,0.068,1.951,0.202  c1.253,0.261,2.478,0.665,3.609,1.126C250.537,150.507,249.05,155.682,249.05,160.33z M265.435,149.292  c0-0.934,0.803-3.777,0.827-3.847c0.85-2.398,2.234-4.949,3.941-7.38c0.892,9.412,1.158,19.147,0.42,28.759  C268.007,160.926,265.435,153.888,265.435,149.292z M275.251,178.329c0.018-0.05,0.023-0.102,0.038-0.153  c0.043-0.137,0.087-0.273,0.11-0.419c0.003-0.018,0.005-0.036,0.008-0.053c0-0.001,0-0.003,0.001-0.004  c7.745-49.523-13.696-104.371-16.029-110.136c-0.09-0.223-0.171-0.442-0.247-0.671l-5.85-17.549  c-4.73-14.189-0.249-31.688,10.897-42.555c0.619-0.603,1.472-0.881,2.333-0.758c0.49,0.069,1.396,0.331,1.953,1.31  c8.44,14.816,4.77,27.255,0.52,41.659l-0.427,1.447c-0.202,0.686-0.155,1.414,0.138,2.067c7.948,17.73,16.723,40.243,22.684,56.005  c3.523,9.315,5.159,19.097,4.866,29.073l-1.417,48.278c-0.268,9.104,0.635,18.222,2.685,27.099c0.32,1.387,1.555,2.326,2.92,2.326  c0.621,0,1.271-0.192,1.847-0.627c0.954-0.721,1.323-1.982,1.055-3.148c-1.917-8.346-2.761-16.916-2.509-25.473l1.417-48.278  c0.116-3.946-0.055-7.863-0.496-11.738c1.421,0.516,2.848,1.143,4.267,1.906c10.861,5.849,15.923,18.227,18.256,27.581  c4.273,17.135,2.133,33.919,0.67,36.113c-1.833,2.75-9.734,1.529-14.495-0.161c-0.881-0.315-1.857-0.2-2.642,0.309  c-0.784,0.509-1.287,1.354-1.358,2.287c-0.387,5.037,1.805,15.462,12.435,20.378c0.94,4.303,3.041,18.37-7.297,26.493  c-10.982,8.628-27.475,2.494-31.121,0.97C262.282,214.64,275.118,178.69,275.251,178.329z M286.229,308.385  c8.097-20.693,1.728-42.248-2.923-57.986c-0.122-0.411-0.24-0.813-0.359-1.216c3.672,1.138,8.726,2.291,14.181,2.291  c6.036,0,12.547-1.413,18.16-5.824c6.438-5.058,10.031-12.619,10.395-21.866c0.086-2.182-0.02-4.21-0.203-5.97  c11.153,6.358,17.948,13.61,20.22,21.61c2.445,8.61-1.27,15.125-1.721,15.87c-0.524,0.668-5.74,6.953-14.69,5.377  c-1.627-0.286-3.188,0.801-3.476,2.433c-0.288,1.632,0.801,3.188,2.433,3.476c1.378,0.243,2.69,0.352,3.938,0.352  c5.301,0,9.417-1.966,12.236-3.969c1.132,9.024,2.096,29.303-5.959,57.176c-2.708,9.364-6.289,18.502-10.69,27.336  c-38.117,10.709-53.934-9.734-57.949-16.397C275.495,326.133,282.014,319.158,286.229,308.385z M71.13,428.065l-21.398,14.757  c-1.134,0.782-1.616,2.26-1.075,3.604c0.333,0.828,1.063,1.434,1.902,1.739l8.604,3.129c1.284,0.467,2.355,1.436,2.834,2.715  c0.196,0.523,0.272,1.009,0.145,1.366c-0.35,0.981-2.665,2.338-8.039,2.936c-10.183,1.13-14.21-3.429-15.768-6.633  c-0.054-0.11-0.115-0.43-0.177-0.847c-0.299-2.023-0.258-4.082,0.078-6.099l4.758-28.538c0.888-5.345,4.822-9.79,10.023-11.323  c1.718-0.505,3.667-0.149,5.21,0.955c4.159,2.974,9.558,3.865,14.45,2.384c13.142-3.982,45.114-13.409,58.108-14.938  c5.715-0.672,12.371,0.962,19.418,2.692c0.503,0.123,1.016,0.245,1.523,0.369l-2.951,29.007l-58.981-2.633  C83.187,422.403,76.567,424.315,71.13,428.065z M192.475,427.291l-37.697-1.683l2.839-27.905c10.669,2.277,22.68,3.392,34.397-3.86  c20.52-12.703,56.151-26.616,56.508-26.755c1.263-0.491,2.039-1.773,1.896-3.121c-0.009-0.083-0.846-8.439,2.803-17.56  c1.283-3.204,5.166-6.218,9.662-9.707c0.751-0.583,1.516-1.179,2.292-1.789c2.145,3.33,6.247,8.599,12.932,13.118  c9.296,6.282,19.594,8.445,29.372,8.445c5.807,0,11.42-0.772,16.542-1.89c-1.998,3.57-4.132,7.085-6.405,10.537  c-0.536,0.83-3.541,5.168-4.568,6.538C273.003,424.938,195.354,427.228,192.475,427.291z M370.029,358.404  c-12.228,4.554-39.033,14.533-49.745,13.477c0.208-0.299,1.806-2.629,2.356-3.48c9.229-14.021,16.292-29.057,21.023-44.718  c4.444-0.577,16.137-1.95,28.405-2.177c19.113-0.357,31.788,2.317,34.795,7.33c5.817,9.696,3.684,27.165,0.965,39.84  c-13.075,2.111-22.811-1.164-26.946-2.986c1.111-2.654,2.38-4.801,3.802-6.413c0.841-0.952,0.99-2.33,0.374-3.44  c-0.615-1.111-1.869-1.713-3.116-1.504C380.242,354.616,376.876,355.854,370.029,358.404z M431.133,461.774  c-0.123,0.372-0.55,1.217-1.755,1.096l-54.416-4.803c-0.987-0.104-1.849-0.606-2.425-1.414c-0.576-0.808-0.77-1.786-0.548-2.753  l4.369-18.933c0.074-0.319,0.095-0.647,0.063-0.973c-0.015-0.148-1.48-15.066-1.109-31.819c0.282-12.728,1.525-23.077,3.643-30.766  c3.891,1.671,10.938,3.972,20.315,3.972c2.232,0,4.609-0.151,7.09-0.452c-0.686,2.691-1.327,4.933-1.797,6.502  c-0.572,1.905-1.505,4.632-2.586,7.79c-4.81,14.054-12.078,35.292-9.451,45.799c1.377,5.508,10.594,10.587,25.61,18.297  c4.529,2.325,8.807,4.522,12.28,6.562C431.43,460.474,431.255,461.402,431.133,461.774z" fill="#FFFFFF"/>
<g>
</g>
<g>
</g>
<g>
</g>
<g>
</g>
<g>
</g>
<g>
</g>
<g>
</g>
<g>
</g>
<g>
</g>
<g>
</g>
<g>
</g>
<g>
</g>
<g>
</g>
<g>
</g>
<g>
</g>
</svg>
